<svg width="316" height="307" viewBox="0 0 316 307" fill="none" xmlns="http://www.w3.org/2000/svg">
<path d="M169.913 36.3181C162.232 31.894 152.768 31.894 145.087 36.3181L62.413 83.9349C54.7318 88.359 50 96.535 50 105.383V159.932C50.1119 159.856 50.2138 159.766 50.3037 159.658C52.8472 156.61 65.5847 138.483 75.6735 124.124C78.1317 120.626 80.4327 117.351 82.3907 114.573C83.0112 113.692 84.2143 113.468 85.1157 114.058L109.435 129.975C110.315 130.552 111.493 130.347 112.127 129.506L154.197 73.7276C154.899 72.7962 156.247 72.6613 157.12 73.4347L172.874 87.3882C172.958 87.4626 173.035 87.5439 173.106 87.6314L189.5 108L198.562 119.447C198.846 119.805 199.243 120.055 199.687 120.156L209.493 122.385C209.826 122.46 210.133 122.619 210.386 122.847L233.421 143.531C234.064 144.109 235.007 144.208 235.756 143.775L245.912 137.916C246.81 137.398 247.956 137.653 248.55 138.503L265 162.038V105.383C265 96.535 260.268 88.359 252.587 83.9349L169.913 36.3181Z" fill="#002D56"/>
<path d="M265 162.038V200.617C265 209.465 260.268 217.641 252.587 222.065L169.913 269.682C162.232 274.106 152.768 274.106 145.087 269.682L62.413 222.065C54.7318 217.641 50 209.465 50 200.617V159.932C50.1119 159.856 50.2138 159.766 50.3037 159.658C52.8472 156.61 65.5845 138.483 75.6731 124.125C78.1315 120.626 80.4326 117.351 82.3907 114.573C83.0112 113.692 84.2143 113.468 85.1157 114.057L109.435 129.975C110.315 130.552 111.493 130.347 112.127 129.506L154.197 73.7275C154.899 72.7962 156.247 72.6612 157.12 73.4347L172.874 87.3882C172.958 87.4626 173.035 87.5439 173.106 87.6313L189.5 108L198.562 119.447C198.846 119.805 199.243 120.055 199.687 120.156L209.493 122.385C209.826 122.46 210.133 122.619 210.386 122.847L233.421 143.531C234.064 144.109 235.007 144.207 235.756 143.775L245.912 137.916C246.81 137.398 247.956 137.653 248.55 138.503L265 162.038Z" fill="#FF922E"/>
<path d="M80.7013 232.598L62.413 222.065C54.7318 217.641 50 209.465 50 200.617V181.881L51.9845 182.529C52.3722 182.656 52.7981 182.535 53.0606 182.222L67.7353 164.766C68.0609 164.378 68.6244 164.295 69.0479 164.572L74.2432 167.968C74.7577 168.304 75.451 168.101 75.7027 167.54L84.7634 147.349C85.0532 146.704 85.9041 146.555 86.3956 147.065L96.5589 157.605C96.9813 158.043 97.6938 158.005 98.0677 157.525L104.464 149.312C105.111 148.481 106.438 149.086 106.235 150.119L101.099 176.263C101.066 176.433 101.077 176.608 101.132 176.772L112.933 212.127C113.181 212.869 112.518 213.596 111.756 213.417L92.6166 208.925C92.1556 208.817 91.6819 209.047 91.4818 209.476L80.7013 232.598Z" fill="#FFE2AB"/>
<path d="M152.644 117.253L154.826 102.372C154.987 101.274 156.55 101.217 156.791 102.301L165.147 139.892C165.16 139.952 165.179 140.011 165.203 140.067L175.172 163.471C175.206 163.551 175.229 163.636 175.242 163.722L178.191 184.434C178.223 184.658 178.33 184.865 178.494 185.02L203.785 208.902C203.851 208.964 203.925 209.017 204.004 209.059L223.384 219.302C223.954 219.604 224.094 220.358 223.67 220.844L214.24 231.657C214.05 231.875 213.775 232 213.486 232H187.652C187.419 232 187.193 231.918 187.013 231.769L173.503 220.552C173.069 220.191 172.422 220.261 172.075 220.707L165.956 228.565C165.555 229.079 164.778 229.079 164.378 228.565L157.73 220.028C157.66 219.938 157.606 219.837 157.57 219.729L149.663 195.928C149.608 195.764 149.597 195.588 149.631 195.418L152.506 180.997C152.563 180.709 152.491 180.41 152.308 180.18L142.253 167.497C142.113 167.32 142.037 167.102 142.037 166.876V148.084C142.037 147.931 142.002 147.781 141.934 147.644L135.817 135.179C135.627 134.793 135.705 134.33 136.01 134.028L152.359 117.818C152.513 117.665 152.613 117.467 152.644 117.253Z" fill="#FFE2AB"/>
<path d="M204.513 137.462L198.05 141.929C197.39 142.385 197.509 143.393 198.256 143.683L219.738 152.044C216.279 147.84 209.438 141.071 205.766 137.558C205.424 137.231 204.902 137.193 204.513 137.462Z" fill="#FFE2AB"/>
<path d="M221.961 177.247L209.777 164.48C209.599 164.294 209.5 164.047 209.5 163.789V157.476C209.5 156.769 210.214 156.285 210.871 156.547L222.126 161.04L232.383 166.523C232.607 166.643 232.778 166.844 232.859 167.085L236.714 178.505C236.753 178.621 236.813 178.728 236.89 178.822L253.811 199.308C253.899 199.415 253.964 199.539 254.002 199.672L258.224 214.515C258.519 215.552 257.191 216.257 256.497 215.433L248.996 206.521C248.928 206.441 248.849 206.372 248.76 206.316L226.992 192.74C226.785 192.611 226.633 192.412 226.563 192.179L222.195 177.649C222.15 177.499 222.07 177.361 221.961 177.247Z" fill="#FFE2AB"/>
<path d="M98 247.75C98 242.365 102.44 238 107.917 238H207.083C212.56 238 217 242.365 217 247.75V267.25C217 272.635 212.56 277 207.083 277H107.917C102.44 277 98 272.635 98 267.25V247.75Z" fill="#002D56"/>
<path d="M118.641 268C118.365 268 118.141 267.776 118.141 267.5V249.74C118.141 249.464 118.365 249.24 118.641 249.24H127.393C127.63 249.24 127.835 249.407 127.883 249.64L128.721 253.766C128.831 254.31 129.612 254.296 129.704 253.75L130.391 249.657C130.432 249.416 130.64 249.24 130.884 249.24H139.901C140.177 249.24 140.401 249.464 140.401 249.74V267.5C140.401 267.776 140.177 268 139.901 268H134.405C134.129 268 133.905 267.776 133.905 267.5V258.507C133.905 258.415 133.83 258.34 133.738 258.34C133.657 258.34 133.587 258.399 133.573 258.479L132.045 267.389C132.003 267.629 131.795 267.804 131.552 267.804H126.964C126.72 267.804 126.512 267.628 126.471 267.387L124.969 258.479C124.955 258.399 124.886 258.34 124.804 258.34C124.712 258.34 124.637 258.415 124.637 258.507V267.5C124.637 267.776 124.413 268 124.137 268H118.641Z" fill="#FFE2AB"/>
<path d="M141.737 268C141.417 268 141.18 267.704 141.249 267.392L145.172 249.632C145.222 249.403 145.425 249.24 145.66 249.24H154.687C154.92 249.24 155.123 249.402 155.174 249.63L159.177 267.39C159.247 267.703 159.01 268 158.689 268H153.154C152.924 268 152.724 267.843 152.669 267.62L152.324 266.224C152.269 266.001 152.069 265.844 151.839 265.844H148.353C148.116 265.844 147.912 266.01 147.864 266.242L147.581 267.602C147.533 267.834 147.329 268 147.092 268H141.737ZM150.199 254.336C149.998 254.336 149.827 254.482 149.795 254.68L148.881 260.308C148.831 260.612 149.066 260.888 149.374 260.888H150.976C151.282 260.888 151.516 260.615 151.47 260.312L150.604 254.683C150.573 254.484 150.401 254.336 150.199 254.336Z" fill="#FFE2AB"/>
<path d="M174.275 254.107C174.265 254.397 174.011 254.618 173.722 254.588C171.364 254.345 169.629 254.224 168.517 254.224C167.323 254.224 166.623 254.261 166.417 254.336C166.231 254.392 166.137 254.523 166.137 254.728C166.137 254.933 166.249 255.092 166.473 255.204C166.697 255.316 167.397 255.503 168.573 255.764C169.768 256.025 170.739 256.287 171.485 256.548C172.251 256.791 172.932 257.145 173.529 257.612C174.145 258.06 174.547 258.62 174.733 259.292C174.939 259.945 175.041 260.832 175.041 261.952C175.041 264.267 174.425 265.919 173.193 266.908C171.961 267.897 170.104 268.392 167.621 268.392C166.427 268.392 165.167 268.308 163.841 268.14C162.535 267.972 161.527 267.804 160.817 267.636L160.136 267.479C159.899 267.424 159.735 267.206 159.749 266.963L159.974 262.972C159.991 262.68 160.255 262.464 160.545 262.504C163.158 262.864 165.32 263.044 167.033 263.044C168.004 263.044 168.489 262.829 168.489 262.4C168.489 262.213 168.377 262.083 168.153 262.008C167.929 261.915 167.323 261.793 166.333 261.644C163.72 261.233 161.937 260.599 160.985 259.74C160.052 258.863 159.585 257.435 159.585 255.456C159.585 252.936 160.192 251.209 161.405 250.276C162.619 249.343 164.485 248.876 167.005 248.876C168.779 248.876 170.86 249.053 173.249 249.408L173.993 249.532C174.24 249.573 174.419 249.791 174.411 250.042L174.275 254.107Z" fill="#FFE2AB"/>
<path d="M176.665 268C176.389 268 176.165 267.776 176.165 267.5V249.74C176.165 249.464 176.389 249.24 176.665 249.24H182.161C182.437 249.24 182.661 249.464 182.661 249.74V267.5C182.661 267.776 182.437 268 182.161 268H176.665Z" fill="#FFE2AB"/>
<path d="M184.84 268C184.564 268 184.34 267.776 184.34 267.5V249.74C184.34 249.464 184.564 249.24 184.84 249.24H197.364C197.641 249.24 197.864 249.464 197.864 249.74V254.032C197.864 254.308 197.641 254.532 197.364 254.532H191.336C191.06 254.532 190.836 254.756 190.836 255.032V257.056C190.836 257.332 191.06 257.556 191.336 257.556H195.684C195.961 257.556 196.184 257.78 196.184 258.056V262.348C196.184 262.624 195.961 262.848 195.684 262.848H191.336C191.06 262.848 190.836 263.072 190.836 263.348V267.5C190.836 267.776 190.613 268 190.336 268H184.84Z" fill="#FFE2AB"/>
</svg>
