<svg width="34" height="22" viewBox="0 0 34 22" fill="none" xmlns="http://www.w3.org/2000/svg">
<path d="M15.848 20.2448C15.8472 20.248 15.8472 20.2514 15.8481 20.2547C15.849 20.2579 15.8507 20.2609 15.8531 20.2632C15.8556 20.2656 15.8586 20.2673 15.8619 20.2682C15.8653 20.2691 15.8688 20.2691 15.8721 20.2682C16.9533 19.8431 18.0768 19.5285 19.2245 19.3295C20.7553 19.0713 22.6535 18.1966 22.6535 18.1966C22.6535 18.1966 22.6535 18.1582 22.6535 18.1433C22.8197 17.1406 22.3255 2.16566 22.2927 1.19706C22.293 1.19347 22.2922 1.18985 22.2903 1.18675C22.2884 1.18364 22.2855 1.1812 22.2821 1.17978C22.2787 1.17835 22.2749 1.17802 22.2713 1.17883C22.2677 1.17963 22.2645 1.18154 22.262 1.18426C21.1686 2.6777 17.3832 12.9973 16.1389 14.222C16.6681 18.0259 16.1389 19.0585 15.848 20.2448Z" fill="#0D0D0D"/>
<path d="M22.437 1.13306L24.5407 17.4328C24.5407 17.4456 24.5539 17.4542 24.5648 17.4499L28.593 15.9565C28.6986 15.9118 28.7882 15.8374 28.8501 15.7427C28.9121 15.6481 28.9436 15.5375 28.9407 15.4252V10.6996C28.9392 10.3951 28.8448 10.098 28.6695 9.84619C26.1537 7.26636 24.0624 4.32215 22.4698 1.11812C22.4698 1.11812 22.4348 1.11172 22.437 1.13306Z" fill="#0D0D0D"/>
<path d="M10.1929 0.0300515C10.1773 0.0246828 10.1603 0.0246828 10.1447 0.0300515C10.128 0.0365093 10.1135 0.047639 10.1032 0.0620536L9.94574 0.309537L5.16093 7.68711C4.36315 9.04571 3.44091 10.331 2.40551 11.5274C1.78004 12.2139 1.10474 12.8556 0.384862 13.4475C0.301762 13.5136 0.192419 13.6203 0.124627 13.6865C0.118535 13.6931 0.114042 13.701 0.11148 13.7095C0.108917 13.7181 0.10835 13.7271 0.109818 13.7359C0.111286 13.7447 0.114751 13.753 0.119962 13.7604C0.125173 13.7677 0.132 13.7738 0.139936 13.7782L0.188047 13.7974C0.227996 13.815 0.271899 13.8222 0.315552 13.8185C0.359205 13.8148 0.401144 13.8001 0.437347 13.7761C1.22471 13.2306 1.96025 12.6173 2.63512 11.9434C3.26931 11.2095 3.57765 10.8319 3.76135 10.5908C4.40578 9.74494 4.99661 8.86145 5.53051 7.94526C5.53281 7.94106 5.53593 7.93734 5.5397 7.93431C5.54347 7.93129 5.54781 7.92902 5.55248 7.92763C5.55716 7.92624 5.56206 7.92577 5.56692 7.92623C5.57178 7.92669 5.57649 7.92808 5.5808 7.93032C6.72233 8.57037 9.43839 9.72031 11.5312 10.8169C12.7099 11.4292 15.3954 13.471 15.4391 13.5008C15.4513 13.5103 15.4592 13.5241 15.461 13.5392C15.4629 13.5462 15.4629 13.5536 15.461 13.5606C15.2423 13.9297 13.4316 16.8867 11.9248 18.3993C11.2968 19.0212 10.6229 19.5974 9.90857 20.1232C9.75111 20.2362 9.67239 20.2938 9.60241 20.3365C9.16504 20.6203 8.53523 20.9168 8.15253 21.224C8.0913 21.2731 7.9754 21.3712 7.99727 21.4374C7.99727 21.4374 8.0082 21.4822 8.08911 21.5078C8.26406 21.559 12.4825 19.8607 15.7802 13.8486C17.0355 11.5615 18.1639 8.94159 19.804 4.85598C20.0969 4.16429 20.4261 3.4878 20.7903 2.82918C20.9478 2.55609 21.0899 2.26167 21.3173 1.88404C21.6344 1.35708 21.7809 1.12453 21.8465 1.03065C21.8507 1.02462 21.8532 1.01766 21.8538 1.01041C21.8545 1.00317 21.8532 0.995888 21.8501 0.989263C21.8471 0.982638 21.8423 0.976887 21.8363 0.972556C21.8303 0.968225 21.8233 0.965457 21.8159 0.964515C19.2783 0.99025 16.7433 0.79677 14.2407 0.386342C11.107 -0.153428 10.1994 0.0300515 10.1929 0.0300515Z" fill="#0D0D0D"/>
<path d="M5.01659 13.4262C9.46463 15.2332 11.3256 17.228 11.9336 17.7102C11.9439 17.7185 11.9559 17.7248 11.9687 17.7284C11.9816 17.7321 11.9951 17.7332 12.0084 17.7316C12.0217 17.73 12.0346 17.7258 12.0461 17.7191C12.0577 17.7125 12.0678 17.7037 12.0757 17.6931C12.3972 17.2984 13.8602 15.4892 14.9339 13.8529C14.9563 13.8189 14.9645 13.7778 14.9567 13.7381C14.949 13.6984 14.926 13.6631 14.8924 13.6395C13.8886 12.9995 9.51274 9.95713 5.66609 8.30582C5.5305 8.24821 5.32494 8.91386 5.34243 9.14001C5.3469 10.5748 5.23797 12.0077 5.01659 13.4262Z" fill="#0D0D0D"/>
<path d="M15.7299 14.8641C15.8684 15.7673 15.9349 16.6796 15.9289 17.5928C15.883 18.7535 15.6928 19.9781 15.5769 20.121C15.461 20.264 15.1526 19.7391 14.6125 19.4063C14.1444 19.1154 13.7051 18.7825 13.3004 18.4121C13.277 18.3749 13.2646 18.332 13.2646 18.2884C13.2646 18.2447 13.277 18.2019 13.3004 18.1646C13.3004 18.1646 15.0301 16.2786 15.7299 14.8641Z" fill="#0D0D0D"/>
<path d="M29.2053 10.7657V10.4564C29.2053 10.435 29.2446 10.4116 29.2643 10.418C29.4393 10.4734 31.3221 12.0799 31.9148 12.3381C32.5708 12.6112 33.638 13.1296 33.7167 13.1616C33.7955 13.1936 33.8108 13.3579 33.7452 13.424C33.6796 13.4902 33.2859 13.2832 33.275 13.279C33.2553 13.279 32.046 12.7712 31.8251 12.6837C31.1537 12.4042 29.3562 10.9108 29.214 10.7871C29.2111 10.7843 29.2088 10.781 29.2073 10.7773C29.2058 10.7736 29.2051 10.7697 29.2053 10.7657Z" fill="#0D0D0D"/>
<path d="M33.9988 12.4042L33.4434 13.8977C33.4405 13.9069 33.434 13.9148 33.4254 13.9196C33.4168 13.9245 33.4067 13.926 33.397 13.9238C33.3873 13.9217 33.3788 13.916 33.3732 13.908C33.3676 13.9 33.3653 13.8902 33.3668 13.8806V12.4725C33.366 12.4557 33.3685 12.4389 33.3743 12.423C33.3801 12.4071 33.389 12.3926 33.4006 12.3801C33.4122 12.3676 33.4261 12.3574 33.4417 12.3502C33.4573 12.343 33.4742 12.3389 33.4915 12.3381H33.9507C33.9585 12.3391 33.9659 12.3417 33.9726 12.3456C33.9792 12.3495 33.985 12.3548 33.9895 12.361C33.994 12.3672 33.9972 12.3742 33.9988 12.3816C34.0004 12.3891 34.0004 12.3968 33.9988 12.4042Z" fill="#0D0D0D"/>
<path d="M7.76546 20.4922L8.32091 21.9729C8.32383 21.9822 8.33024 21.99 8.33884 21.9948C8.34745 21.9997 8.35762 22.0012 8.36731 21.999C8.377 21.9969 8.38549 21.9912 8.39108 21.9832C8.39667 21.9752 8.39895 21.9654 8.39745 21.9558V20.5499C8.39927 20.516 8.3875 20.4828 8.36463 20.4573C8.34176 20.4318 8.3096 20.416 8.27499 20.4133H7.81356C7.8045 20.4143 7.7958 20.4173 7.78813 20.4222C7.78047 20.427 7.77406 20.4335 7.7694 20.4411C7.76474 20.4488 7.76196 20.4574 7.76127 20.4662C7.76059 20.4751 7.76202 20.484 7.76546 20.4922Z" fill="#0D0D0D"/>
<path d="M0.00434772 12.7541L0.559808 14.2348C0.562729 14.244 0.569134 14.2519 0.57774 14.2567C0.586346 14.2616 0.596515 14.2631 0.606204 14.2609C0.615893 14.2587 0.624384 14.2531 0.629975 14.2451C0.635567 14.2371 0.637842 14.2273 0.636345 14.2177V12.8117C0.638166 12.7779 0.626392 12.7447 0.603524 12.7192C0.580656 12.6937 0.548497 12.6779 0.513883 12.6752H0.0524586C0.0433962 12.6762 0.0346941 12.6792 0.0270317 12.684C0.0193693 12.6888 0.0129559 12.6953 0.00829522 12.703C0.00363457 12.7106 0.0008513 12.7192 0.000166634 12.7281C-0.000518032 12.737 0.000913276 12.7459 0.00434772 12.7541Z" fill="#0D0D0D"/>
</svg>
