<svg width="14" height="25" viewBox="0 0 14 25" fill="none" xmlns="http://www.w3.org/2000/svg">
<path d="M9.5071 18.7607C9.47747 19.1259 11.0277 17.722 11.723 16.6174C12.2474 15.7816 12.5968 14.8546 12.7512 13.8889C13.0492 12.0677 12.6277 10.2049 11.5703 8.66939C11.5703 8.66939 9.66669 6.07946 9.13322 5.84841C9.3151 6.20286 9.4772 6.56646 9.61881 6.93763C9.85332 7.49244 10.0216 8.07122 10.1204 8.66279C10.223 9.33392 10.3119 9.90604 10.0748 10.5772C9.94254 10.9469 9.68037 11.6774 9.39084 11.6774C9.33433 11.6702 9.28206 11.6445 9.24265 11.6048C8.91818 11.3095 8.6947 10.9256 8.60203 10.5046C8.41965 9.56937 7.98878 7.16428 7.87479 6.59876C7.71979 5.74191 7.4356 4.9116 7.03127 4.13425C6.32178 2.81725 5.28656 1.68956 4.01742 0.851179C3.5797 0.551918 2.57432 -0.0686096 2.51733 0.00620575C2.51733 0.0216089 2.53101 0.0568161 2.54241 0.0744198C2.5538 0.0920234 3.30385 1.11303 3.86923 1.99101C4.08776 2.35142 4.24624 2.74274 4.33887 3.15065C4.70135 4.42692 4.40498 5.55355 4.1998 6.3017C4.08125 6.72859 3.99234 6.91783 2.23008 10.5508C2.02262 10.9755 2.0135 10.9909 1.98842 11.0547C1.46158 12.2828 1.34521 13.639 1.65558 14.9341C1.8146 15.5686 2.08029 16.1737 2.4421 16.7252C2.4421 16.7252 3.24913 17.9707 5.17782 18.9257C5.1936 18.929 5.20992 18.929 5.2257 18.9257C5.23946 18.9261 5.25313 18.9235 5.26574 18.9182C5.27835 18.9128 5.28959 18.9049 5.29865 18.8949C5.32144 18.8641 5.29865 18.8179 5.29865 18.7937C5.26435 18.6768 5.21373 18.5651 5.14818 18.4614C5.001 18.2432 4.8685 18.0161 4.7515 17.7815C4.59648 17.5262 4.56 17.2027 4.49389 16.5646C4.41768 16.0503 4.39325 15.53 4.42094 15.0111C4.46653 14.5402 4.61244 14.1309 4.90197 13.3475C5.38072 12.0471 5.62922 11.706 5.90279 10.7202C5.90279 10.7202 5.97346 10.2669 6.13076 9.6882C6.17268 9.49581 6.24011 9.30944 6.33138 9.13368C6.34097 9.32626 6.33182 9.51928 6.30403 9.7102C6.28579 10.2009 6.40889 10.52 6.65967 11.2351C6.86029 11.805 7.04267 12.3794 7.24101 12.9493C7.55562 13.8603 7.7152 14.3179 7.73572 14.4698C7.85199 15.3676 7.63313 16.1641 7.82235 16.2147C7.86339 16.2279 7.9067 16.1949 7.93178 16.1773C8.46069 15.7923 8.4812 15.9749 9.11726 15.482C9.48181 15.2394 9.79644 14.9334 10.0451 14.5798C10.1637 14.3906 10.2731 14.1551 10.3324 14.1727C10.3917 14.1903 10.3483 14.373 10.3324 14.5072C10.2526 15.1255 10.3575 15.1673 10.305 15.9265C10.2914 16.2511 10.251 16.5741 10.1842 16.8925C10.0428 17.5328 9.51622 18.6352 9.5071 18.7607Z" fill="#0D0D0D"/>
<path d="M1.05098 24.9772C1.42154 24.8628 1.58261 24.3497 1.41074 23.8311C1.23887 23.3126 0.799142 22.9849 0.428586 23.0994C0.0580297 23.2138 -0.103036 23.7269 0.0688348 24.2455C0.240705 24.764 0.680428 25.0916 1.05098 24.9772Z" fill="#0D0D0D"/>
<path d="M2.98012 22.2154L1.14035 22.8337L1.10159 22.8491C1.29771 22.903 1.47552 23.0062 1.61689 23.1481C1.75826 23.2899 1.85814 23.4654 1.90635 23.6567C1.97865 23.8347 2.00318 24.0275 1.97767 24.2172C1.95217 24.4068 1.87745 24.5872 1.76045 24.7415L1.822 24.7261L6.15356 23.2738L2.98012 22.2154Z" fill="#0D0D0D"/>
<path d="M11.2283 21.5684L13.6905 20.7433C13.7478 20.7245 13.8007 20.6949 13.8461 20.6562C13.8915 20.6174 13.9284 20.5704 13.9547 20.5177C13.981 20.4651 13.9962 20.4079 13.9994 20.3495C14.0025 20.2912 13.9936 20.2328 13.9732 20.1778L13.5947 19.1237C13.5753 19.0684 13.5446 19.0173 13.5045 18.9735C13.4644 18.9297 13.4156 18.8941 13.3611 18.8687C13.3065 18.8433 13.2473 18.8286 13.1868 18.8256C13.1263 18.8225 13.0658 18.8311 13.0088 18.8509L8.06173 20.51L11.2283 21.5684Z" fill="#0D0D0D"/>
<path d="M13.7453 24.064C13.9429 23.5541 13.8077 23.034 13.4433 22.9024C13.0789 22.7709 12.6233 23.0776 12.4257 23.5875C12.2281 24.0975 12.3632 24.6175 12.7276 24.7491C13.092 24.8806 13.5476 24.5739 13.7453 24.064Z" fill="#0D0D0D"/>
<path d="M1.08107 19.2448L0.70491 20.2988C0.684442 20.3538 0.675534 20.4122 0.678705 20.4706C0.681877 20.5289 0.697065 20.5861 0.723382 20.6388C0.749698 20.6914 0.786616 20.7385 0.831982 20.7772C0.877347 20.8159 0.930251 20.8455 0.987603 20.8643L11.9829 24.5259H12.024C11.796 24.2904 11.7413 23.8481 11.91 23.4102C11.9677 23.2273 12.0723 23.0614 12.2142 22.9279C12.3561 22.7944 12.5306 22.6977 12.7216 22.6467L12.6623 22.6203L1.66697 18.9653C1.60954 18.9457 1.54862 18.9374 1.4878 18.9409C1.42699 18.9444 1.36752 18.9596 1.3129 18.9856C1.25829 19.0117 1.20963 19.0481 1.16981 19.0926C1.12999 19.1371 1.09982 19.1888 1.08107 19.2448Z" fill="#0D0D0D"/>
</svg>
