<svg width="50" height="50" viewBox="0 0 50 50" fill="none" xmlns="http://www.w3.org/2000/svg">
<rect x="45" width="5" height="50" fill="#004A8E"/>
<rect width="45" height="25" fill="#004A8E"/>
<path d="M28.8379 19H21.1339V16.894L23.6719 14.32C24.5719 13.396 25.1959 12.688 25.5439 12.196C25.9039 11.704 26.0839 11.182 26.0839 10.63C26.0839 10.066 25.9339 9.67 25.6339 9.442C25.3459 9.214 24.9319 9.1 24.3919 9.1C23.5879 9.1 22.7119 9.172 21.7639 9.316L21.3319 9.37L21.2059 7.444C22.3819 7.084 23.5999 6.904 24.8599 6.904C27.3799 6.904 28.6399 8.038 28.6399 10.306C28.6399 11.194 28.4479 11.962 28.0639 12.61C27.6799 13.258 26.9839 14.044 25.9759 14.968L23.9059 16.84H28.8379V19Z" fill="#FCFCFC"/>
</svg>
