<svg width="16" height="25" viewBox="0 0 16 25" fill="none" xmlns="http://www.w3.org/2000/svg">
<path d="M10.5948 24.7788C10.5557 25.2612 12.6032 23.407 13.5216 21.948C14.2142 20.8441 14.6756 19.6197 14.8796 18.3442C15.2731 15.9388 14.7165 13.4785 13.3199 11.4504C13.3199 11.4504 10.8056 8.02965 10.101 7.72448C10.3412 8.19264 10.5553 8.67287 10.7424 9.16311C11.0521 9.89589 11.2743 10.6603 11.4048 11.4417C11.5403 12.3281 11.6577 13.0837 11.3446 13.9702C11.1699 14.4584 10.8237 15.4233 10.4413 15.4233C10.3666 15.4138 10.2976 15.3799 10.2455 15.3274C9.81697 14.9373 9.52182 14.4304 9.39942 13.8743C9.15853 12.6391 8.58944 9.46247 8.43888 8.71554C8.23417 7.58383 7.85882 6.48716 7.32478 5.46046C6.38769 3.72097 5.0204 2.23154 3.34413 1.12422C2.766 0.728964 1.43811 -0.0906185 1.36284 0.00819646C1.36284 0.0285407 1.3809 0.0750419 1.39596 0.0982924C1.41101 0.121543 2.40166 1.47008 3.14841 2.6297C3.43704 3.10572 3.64635 3.62257 3.76869 4.16133C4.24746 5.847 3.85601 7.33504 3.58502 8.32319C3.42844 8.88701 3.31101 9.13696 0.983442 13.9353C0.709433 14.4962 0.697389 14.5166 0.664267 14.6008C-0.0315802 16.2229 -0.185275 18.0142 0.224647 19.7247C0.43468 20.5628 0.785606 21.3619 1.26347 22.0904C1.26347 22.0904 2.32939 23.7354 4.87677 24.9968C4.89761 25.0011 4.91917 25.0011 4.94001 24.9968C4.95818 24.9972 4.97624 24.9938 4.9929 24.9868C5.00955 24.9798 5.02439 24.9693 5.03636 24.9561C5.06647 24.9154 5.03636 24.8543 5.03636 24.8224C4.99106 24.6681 4.9242 24.5204 4.83763 24.3835C4.64323 24.0953 4.46822 23.7954 4.3137 23.4855C4.10895 23.1483 4.06077 22.7211 3.97344 21.8783C3.87279 21.1989 3.84052 20.5118 3.87709 19.8264C3.93731 19.2045 4.13002 18.6639 4.51243 17.6292C5.14476 15.9116 5.47297 15.4611 5.8343 14.1591C5.8343 14.1591 5.92764 13.5604 6.13541 12.796C6.19077 12.5419 6.27983 12.2958 6.40038 12.0636C6.41305 12.318 6.40095 12.5729 6.36425 12.8251C6.34016 13.4732 6.50276 13.8946 6.83397 14.8392C7.09895 15.5919 7.33984 16.3505 7.6018 17.1032C8.01733 18.3064 8.22811 18.9109 8.25521 19.1115C8.40877 20.2972 8.11971 21.3493 8.36963 21.4162C8.42383 21.4336 8.48104 21.39 8.51416 21.3668C9.21273 20.8582 9.23983 21.0994 10.0799 20.4484C10.5614 20.1279 10.977 19.7238 11.3054 19.2568C11.462 19.0068 11.6065 18.6959 11.6848 18.7191C11.7631 18.7424 11.7059 18.9836 11.6848 19.1609C11.5794 19.9775 11.718 20.0328 11.6487 21.0354C11.6307 21.4642 11.5774 21.8908 11.4891 22.3113C11.3024 23.1571 10.6069 24.6131 10.5948 24.7788Z" fill="#0D0D0D"/>
</svg>
