<svg width="18" height="26" viewBox="0 0 18 26" fill="none" xmlns="http://www.w3.org/2000/svg">
<path d="M16.4485 10.4649H17.31L16.8715 26H16.404L16.4485 10.4649Z" fill="#0D0D0D"/>
<path d="M13.0293 10.7564L10.5383 6.53644C10.5383 6.53644 9.34956 4.76983 7.84028 5.1629C6.33099 5.55597 5.85238 7.53678 5.85238 7.53678C5.85238 7.53678 5.05544 10.0343 4.9152 11.5116C4.77496 12.989 4.0359 18.7702 3.89565 18.79C3.75541 18.8099 0.538719 23.2573 0.411832 23.4936C0.284946 23.7299 -0.0333845 24.1318 0.117989 24.6861C0.149082 24.8605 0.237231 25.0199 0.368808 25.1397C0.500385 25.2594 0.668063 25.3328 0.845919 25.3486C1.05643 25.3955 1.27501 25.3936 1.48466 25.343C1.69431 25.2925 1.88938 25.1946 2.05468 25.0571C2.55333 24.6331 6.28424 20.2453 6.4 19.7286C6.51576 19.2118 6.79847 17.5976 6.80515 17.2641C6.81183 16.9307 7.168 17.231 7.2793 17.3282C7.39061 17.4253 10.1265 19.1809 10.1977 19.3598C10.2689 19.5386 11.9786 24.8804 12.1544 25.1476C12.3303 25.4148 12.5573 25.9117 13.3966 25.9028C13.3966 25.9028 14.3404 25.9956 14.6143 25.1542C14.8881 24.3129 14.6143 23.9794 14.572 23.8293C14.5297 23.6791 12.8512 18.4257 12.7132 18.1673C12.5752 17.909 12.6553 17.6771 12.0454 17.2708C11.4354 16.8644 9.37405 15.5483 9.31394 15.4666C9.25384 15.3849 9.19151 15.3319 9.26274 15.1067C9.33398 14.8814 10.171 9.74724 10.24 9.68762C10.309 9.62799 10.4359 9.7627 10.4982 9.89078C10.5606 10.0189 11.6536 12.0505 11.9185 12.2227C12.4019 12.4473 12.9109 12.6134 13.4344 12.7173C13.8796 12.8101 16.8292 13.53 17.1742 13.4836C17.5193 13.4372 17.9845 13.4483 17.9957 12.8565C18.0068 12.2647 18.0135 12.1057 17.7886 11.8296C17.5638 11.5536 16.7914 11.4034 16.6422 11.4034C16.454 11.431 16.2628 11.431 16.0746 11.4034C15.7607 11.3394 13.5524 10.8028 13.0293 10.7564Z" fill="#0D0D0D"/>
<path d="M9.95728 4.91116C11.3244 4.91116 12.4327 3.81176 12.4327 2.45558C12.4327 1.0994 11.3244 0 9.95728 0C8.59015 0 7.48188 1.0994 7.48188 2.45558C7.48188 3.81176 8.59015 4.91116 9.95728 4.91116Z" fill="#0D0D0D"/>
<path d="M2.62901 14.336C2.85158 14.3645 3.07667 14.307 3.25772 14.1755C3.43878 14.0439 3.56197 13.8484 3.60181 13.6294C3.92014 11.8627 4.75938 7.66706 5.14004 6.78376C5.6231 5.66197 5.72104 5.3506 5.66762 5.23798C5.61419 5.12536 5.50734 4.73892 3.73983 4.8405C1.97232 4.94208 0.86818 6.94276 0.35618 9.63462C-0.155819 12.3265 -0.106845 13.064 0.445224 13.5123C0.93051 13.8921 1.22881 14.166 2.62901 14.336Z" fill="#0D0D0D"/>
</svg>
