<svg width="48" height="48" viewBox="0 0 48 48" fill="none" xmlns="http://www.w3.org/2000/svg">
<path d="M27.2234 32.2649C27.1853 32.7763 29.1785 30.8109 30.0725 29.2644C30.7467 28.0942 31.1959 26.7964 31.3944 25.4444C31.7775 22.8947 31.2356 20.2868 29.8761 18.1371C29.8761 18.1371 27.4286 14.5112 26.7427 14.1878C26.9766 14.684 27.185 15.193 27.367 15.7127C27.6685 16.4894 27.8849 17.2997 28.0119 18.1279C28.1438 19.0675 28.2581 19.8685 27.9533 20.8081C27.7833 21.3256 27.4462 22.3484 27.0739 22.3484C27.0013 22.3382 26.9341 22.3024 26.8834 22.2467C26.4662 21.8332 26.1789 21.2959 26.0598 20.7064C25.8253 19.3971 25.2713 16.03 25.1247 15.2383C24.9254 14.0387 24.5601 12.8762 24.0402 11.788C23.128 9.94414 21.797 8.36538 20.1653 7.19165C19.6025 6.77269 18.3098 5.90395 18.2366 6.00869C18.2366 6.03025 18.2542 6.07954 18.2688 6.10419C18.2835 6.12883 19.2478 7.55825 19.9747 8.78742C20.2557 9.29199 20.4594 9.83984 20.5785 10.4109C21.0446 12.1977 20.6635 13.775 20.3997 14.8224C20.2473 15.42 20.133 15.685 17.8672 20.7711C17.6005 21.3656 17.5888 21.3872 17.5565 21.4765C16.8792 23.1959 16.7296 25.0947 17.1286 26.9077C17.3331 27.796 17.6747 28.6431 18.1398 29.4153C18.1398 29.4153 19.1775 31.159 21.6572 32.496C21.6775 32.5006 21.6985 32.5006 21.7188 32.496C21.7364 32.4965 21.754 32.4929 21.7702 32.4854C21.7865 32.478 21.8009 32.4669 21.8125 32.4528C21.8419 32.4097 21.8125 32.345 21.8125 32.3111C21.7684 32.1476 21.7034 31.9911 21.6191 31.846C21.4299 31.5405 21.2595 31.2225 21.1091 30.894C20.9098 30.5367 20.8629 30.0838 20.7779 29.1905C20.6799 28.4704 20.6485 27.742 20.6841 27.0155C20.7427 26.3563 20.9303 25.7833 21.3025 24.6866C21.9181 22.8659 22.2376 22.3884 22.5893 21.0083C22.5893 21.0083 22.6802 20.3737 22.8824 19.5635C22.9363 19.2941 23.023 19.0332 23.1403 18.7872C23.1527 19.0568 23.1409 19.327 23.1052 19.5943C23.0817 20.2813 23.24 20.728 23.5624 21.7292C23.8204 22.527 24.0549 23.3311 24.3099 24.129C24.7144 25.4044 24.9195 26.0451 24.9459 26.2577C25.0954 27.5146 24.814 28.6298 25.0573 28.7006C25.1101 28.7191 25.1658 28.6729 25.198 28.6483C25.878 28.1092 25.9044 28.3648 26.7222 27.6748C27.1909 27.3351 27.5954 26.9068 27.9152 26.4117C28.0676 26.1468 28.2083 25.8172 28.2845 25.8418C28.3607 25.8665 28.305 26.1221 28.2845 26.3101C28.1819 27.1757 28.3167 27.2343 28.2493 28.2971C28.2318 28.7515 28.1799 29.2037 28.094 29.6495C27.9122 30.5459 27.2351 32.0893 27.2234 32.2649Z" fill="#0D0D0D"/>
<path d="M16.3513 40.9681C16.8277 40.8079 17.0348 40.0895 16.8138 39.3636C16.5928 38.6376 16.0275 38.1789 15.551 38.3391C15.0746 38.4993 14.8675 39.2177 15.0885 39.9436C15.3095 40.6696 15.8748 41.1283 16.3513 40.9681Z" fill="#0D0D0D"/>
<path d="M18.8316 37.1015L16.4662 37.9672L16.4163 37.9887C16.6685 38.0643 16.8971 38.2087 17.0789 38.4073C17.2606 38.6059 17.389 38.8516 17.451 39.1193C17.544 39.3686 17.5755 39.6385 17.5427 39.904C17.5099 40.1695 17.4139 40.422 17.2634 40.6381L17.3426 40.6165L22.9117 38.5833L18.8316 37.1015Z" fill="#0D0D0D"/>
<path d="M29.4364 36.1958L32.602 35.0406C32.6758 35.0143 32.7438 34.9728 32.8021 34.9186C32.8605 34.8644 32.9079 34.7985 32.9418 34.7248C32.9756 34.6511 32.9951 34.5711 32.9992 34.4894C33.0033 34.4076 32.9918 34.3259 32.9655 34.2489L32.4789 32.7732C32.4539 32.6957 32.4145 32.6242 32.3629 32.5629C32.3113 32.5016 32.2486 32.4518 32.1785 32.4162C32.1084 32.3806 32.0322 32.3601 31.9545 32.3558C31.8767 32.3515 31.7989 32.3636 31.7256 32.3912L25.3651 34.714L29.4364 36.1958Z" fill="#0D0D0D"/>
<path d="M32.6725 39.6896C32.9266 38.9757 32.7528 38.2476 32.2843 38.0634C31.8158 37.8792 31.23 38.3086 30.9759 39.0225C30.7218 39.7364 30.8956 40.4645 31.3641 40.6487C31.8326 40.8329 32.4184 40.4035 32.6725 39.6896Z" fill="#0D0D0D"/>
<path d="M16.3899 32.9427L15.9063 34.4183C15.88 34.4953 15.8685 34.5771 15.8726 34.6588C15.8767 34.7405 15.8962 34.8206 15.9301 34.8943C15.9639 34.968 16.0114 35.0338 16.0697 35.0881C16.128 35.1423 16.196 35.1837 16.2698 35.21L30.4066 40.3362H30.4594C30.1663 40.0066 30.0959 39.3874 30.3128 38.7743C30.387 38.5182 30.5216 38.2859 30.704 38.099C30.8864 37.9122 31.1108 37.7767 31.3563 37.7053L31.2801 37.6684L17.1433 32.5514C17.0694 32.524 16.9911 32.5123 16.9129 32.5172C16.8347 32.5221 16.7582 32.5434 16.688 32.5799C16.6178 32.6164 16.5552 32.6673 16.504 32.7296C16.4528 32.7919 16.4141 32.8643 16.3899 32.9427Z" fill="#0D0D0D"/>
</svg>
