<svg width="48" height="48" viewBox="0 0 48 48" fill="none" xmlns="http://www.w3.org/2000/svg">
<path d="M22.5092 36.6065C22.5081 36.6109 22.5081 36.6156 22.5092 36.62C22.5104 36.6244 22.5127 36.6285 22.5158 36.6317C22.519 36.6349 22.5229 36.6373 22.5272 36.6385C22.5315 36.6397 22.536 36.6397 22.5403 36.6385C23.9396 36.0588 25.3935 35.6298 26.8788 35.3584C28.8598 35.0064 31.3163 33.8136 31.3163 33.8136C31.3163 33.8136 31.3163 33.7612 31.3163 33.7408C31.5314 32.3735 30.8918 11.9532 30.8493 10.6324C30.8498 10.6275 30.8487 10.6225 30.8462 10.6183C30.8438 10.6141 30.8401 10.6107 30.8357 10.6088C30.8313 10.6068 30.8264 10.6064 30.8217 10.6075C30.8171 10.6086 30.8128 10.6112 30.8097 10.6149C29.3947 12.6514 24.4959 26.7236 22.8856 28.3936C23.5705 33.5808 22.8856 34.9889 22.5092 36.6065Z" fill="#0D0D0D"/>
<path d="M31.0361 10.5451L33.7586 32.7721C33.7586 32.7895 33.7756 32.8011 33.7897 32.7953L39.0027 30.7588C39.1394 30.698 39.2553 30.5965 39.3354 30.4674C39.4156 30.3383 39.4564 30.1875 39.4526 30.0344V23.5903C39.4507 23.1752 39.3286 22.7701 39.1017 22.4266C35.8459 18.9087 33.1395 14.8938 31.0786 10.5247C31.0786 10.5247 31.0333 10.516 31.0361 10.5451Z" fill="#0D0D0D"/>
<path d="M15.1908 9.04098C15.1706 9.03366 15.1486 9.03366 15.1285 9.04098C15.1068 9.04979 15.0881 9.06496 15.0747 9.08462L14.871 9.4221L8.67885 19.4824C7.64643 21.3351 6.45295 23.0878 5.11301 24.7191C4.30357 25.6553 3.42967 26.5303 2.49806 27.3375C2.39052 27.4277 2.24901 27.5732 2.16128 27.6633C2.1534 27.6724 2.14758 27.6832 2.14427 27.6948C2.14095 27.7065 2.14022 27.7188 2.14212 27.7308C2.14402 27.7428 2.1485 27.7542 2.15524 27.7641C2.16199 27.7741 2.17082 27.7824 2.18109 27.7884L2.24336 27.8146C2.29505 27.8386 2.35187 27.8485 2.40836 27.8434C2.46485 27.8383 2.51913 27.8184 2.56598 27.7855C3.58492 27.0417 4.5368 26.2053 5.41016 25.2865C6.23087 24.2857 6.6299 23.7707 6.86762 23.442C7.7016 22.2886 8.4662 21.0838 9.15713 19.8344C9.1601 19.8287 9.16414 19.8236 9.16902 19.8195C9.1739 19.8154 9.17952 19.8123 9.18557 19.8104C9.19161 19.8085 9.19796 19.8079 9.20425 19.8085C9.21054 19.8091 9.21664 19.811 9.22221 19.8141C10.6995 20.6869 14.2144 22.255 16.9227 23.7503C18.4481 24.5853 21.9234 27.3695 21.98 27.4102C21.9958 27.4232 22.006 27.442 22.0083 27.4626C22.0108 27.4721 22.0108 27.4822 22.0083 27.4917C21.7253 27.995 19.382 32.0273 17.4321 34.09C16.6194 34.938 15.7473 35.7237 14.8229 36.4407C14.6191 36.5949 14.5172 36.6734 14.4266 36.7316C13.8606 37.1185 13.0456 37.5229 12.5503 37.9419C12.4711 38.0088 12.3211 38.1426 12.3494 38.2328C12.3494 38.2328 12.3636 38.2939 12.4683 38.3288C12.6947 38.3986 18.1538 36.0828 22.4215 27.8844C24.0459 24.7657 25.5062 21.1931 27.6288 15.6218C28.0077 14.6786 28.4337 13.7561 28.9051 12.858C29.1089 12.4856 29.2928 12.0841 29.5871 11.5692C29.9975 10.8506 30.1871 10.5334 30.272 10.4054C30.2774 10.3972 30.2806 10.3877 30.2815 10.3778C30.2823 10.368 30.2806 10.358 30.2766 10.349C30.2727 10.34 30.2665 10.3321 30.2588 10.3262C30.251 10.3203 30.2419 10.3165 30.2324 10.3152C26.9484 10.3503 23.6679 10.0865 20.4291 9.52683C16.3737 8.79078 15.1992 9.04098 15.1908 9.04098Z" fill="#0D0D0D"/>
<path d="M8.49206 27.3084C14.2484 29.7726 16.6567 32.4928 17.4435 33.1503C17.4568 33.1617 17.4723 33.1701 17.489 33.1751C17.5056 33.1802 17.5231 33.1816 17.5403 33.1794C17.5575 33.1773 17.5742 33.1715 17.5891 33.1625C17.6041 33.1534 17.6171 33.1414 17.6274 33.127C18.0434 32.5888 19.9367 30.1217 21.3263 27.8903C21.3552 27.8439 21.3658 27.7879 21.3558 27.7338C21.3458 27.6797 21.316 27.6316 21.2725 27.5993C19.9735 26.7266 14.3106 22.5779 9.33258 20.3261C9.15712 20.2476 8.89109 21.1553 8.91373 21.4636C8.91952 23.4201 8.77855 25.3742 8.49206 27.3084Z" fill="#0D0D0D"/>
<path d="M22.3564 29.2693C22.5355 30.5009 22.6216 31.7449 22.6139 32.9903C22.5545 34.5729 22.3083 36.2428 22.1583 36.4378C22.0083 36.6327 21.6093 35.917 20.9103 35.4631C20.3045 35.0664 19.7361 34.6126 19.2122 34.1074C19.182 34.0566 19.1659 33.9982 19.1659 33.9387C19.1659 33.8791 19.182 33.8207 19.2122 33.7699C19.2122 33.7699 21.4508 31.1981 22.3564 29.2693Z" fill="#0D0D0D"/>
<path d="M39.7951 23.6805V23.2587C39.7951 23.2296 39.846 23.1976 39.8715 23.2063C40.0979 23.282 42.5345 25.4726 43.3015 25.8247C44.1505 26.1971 45.5315 26.904 45.6334 26.9477C45.7353 26.9913 45.7551 27.2153 45.6702 27.3055C45.5853 27.3957 45.0759 27.1135 45.0617 27.1077C45.0363 27.1077 43.4713 26.4153 43.1854 26.296C42.3166 25.9149 39.9903 23.8784 39.8064 23.7096C39.8026 23.7059 39.7996 23.7014 39.7976 23.6963C39.7957 23.6913 39.7948 23.6859 39.7951 23.6805Z" fill="#0D0D0D"/>
<path d="M45.9985 25.9149L45.2797 27.9514C45.2759 27.964 45.2676 27.9747 45.2565 27.9813C45.2453 27.9879 45.2322 27.99 45.2196 27.987C45.2071 27.9841 45.1961 27.9764 45.1889 27.9654C45.1816 27.9545 45.1787 27.9412 45.1806 27.9281V26.008C45.1795 25.985 45.1827 25.9621 45.1902 25.9405C45.1977 25.9188 45.2093 25.8989 45.2243 25.8819C45.2393 25.8649 45.2574 25.8511 45.2776 25.8412C45.2977 25.8314 45.3196 25.8258 45.3419 25.8247H45.9362C45.9462 25.8261 45.9558 25.8295 45.9645 25.8349C45.9731 25.8403 45.9806 25.8474 45.9864 25.8559C45.9923 25.8643 45.9963 25.8739 45.9984 25.8841C46.0005 25.8942 46.0005 25.9047 45.9985 25.9149Z" fill="#0D0D0D"/>
<path d="M12.0494 36.944L12.7682 38.963C12.772 38.9757 12.7803 38.9864 12.7914 38.993C12.8026 38.9996 12.8157 39.0016 12.8283 38.9987C12.8408 38.9957 12.8518 38.988 12.859 38.9771C12.8663 38.9662 12.8692 38.9528 12.8673 38.9397V37.0225C12.8696 36.9764 12.8544 36.9311 12.8248 36.8964C12.7952 36.8616 12.7536 36.8401 12.7088 36.8363H12.1117C12.0999 36.8377 12.0887 36.8418 12.0788 36.8484C12.0688 36.855 12.0606 36.8638 12.0545 36.8742C12.0485 36.8847 12.0449 36.8964 12.044 36.9085C12.0431 36.9206 12.045 36.9327 12.0494 36.944Z" fill="#0D0D0D"/>
<path d="M2.00563 26.392L2.72446 28.411C2.72824 28.4237 2.73653 28.4344 2.74766 28.441C2.7588 28.4476 2.77196 28.4496 2.7845 28.4467C2.79704 28.4437 2.80803 28.436 2.81526 28.4251C2.8225 28.4142 2.82544 28.4008 2.82351 28.3878V26.4705C2.82586 26.4244 2.81063 26.3791 2.78103 26.3444C2.75144 26.3096 2.70982 26.2881 2.66502 26.2843H2.06789C2.05616 26.2857 2.0449 26.2898 2.03498 26.2964C2.02507 26.303 2.01677 26.3118 2.01073 26.3223C2.0047 26.3327 2.0011 26.3444 2.00022 26.3565C1.99933 26.3686 2.00118 26.3807 2.00563 26.392Z" fill="#0D0D0D"/>
</svg>
