<svg width="48" height="48" viewBox="0 0 48 48" fill="none" xmlns="http://www.w3.org/2000/svg">
<path d="M31.1619 24.5L41.1051 34.4432C41.7017 35.0398 42 35.7689 42 36.6307C42 37.4924 41.7017 38.2547 41.1051 38.9176L38.9176 41.1051C38.2547 41.7017 37.4924 42 36.6307 42C35.7689 42 35.0398 41.7017 34.4432 41.1051L24.5 31.1619L14.5568 41.1051C13.9602 41.7017 13.2311 42 12.3693 42C11.5076 42 10.7453 41.7017 10.0824 41.1051L7.89489 38.9176C7.2983 38.2547 7 37.4924 7 36.6307C7 35.7689 7.2983 35.0398 7.89489 34.4432L17.8381 24.5L7.89489 14.5568C7.2983 13.9602 7 13.2311 7 12.3693C7 11.5076 7.2983 10.7453 7.89489 10.0824L10.0824 7.89489C10.7453 7.2983 11.5076 7 12.3693 7C13.2311 7 13.9602 7.2983 14.5568 7.89489L24.5 17.8381L34.4432 7.89489C35.0398 7.2983 35.7689 7 36.6307 7C37.4924 7 38.2547 7.2983 38.9176 7.89489L41.1051 10.0824C41.7017 10.7453 42 11.5076 42 12.3693C42 13.2311 41.7017 13.9602 41.1051 14.5568L31.1619 24.5Z" fill="black"/>
</svg>
