<svg width="48" height="48" viewBox="0 0 48 48" fill="none" xmlns="http://www.w3.org/2000/svg">
<path d="M31.9861 11.8359L38.2361 18.1641C38.5602 18.4922 38.5602 18.8203 38.2361 19.1484L23.0278 34.5469L16.6389 35.25C16.3611 35.2969 16.0833 35.25 15.8056 35.1094C15.5741 34.9688 15.3889 34.7812 15.25 34.5469C15.1111 34.2656 15.0648 33.9844 15.1111 33.7031L15.8056 27.2344L31.0139 11.8359C31.338 11.5078 31.662 11.5078 31.9861 11.8359ZM43.2361 10.2188C43.7454 10.7812 44 11.4375 44 12.1875C44 12.9375 43.7454 13.5938 43.2361 14.1562L40.7361 16.6172C40.412 16.9453 40.088 16.9453 39.7639 16.6172L33.5139 10.2891C33.1898 9.96094 33.1898 9.63281 33.5139 9.30469L36.0139 6.84375C36.5231 6.28125 37.1481 6 37.8889 6C38.6296 6 39.2778 6.28125 39.8333 6.84375L43.2361 10.2188ZM30.6667 30.3281C30.6667 30.0938 30.7593 29.9062 30.9444 29.7656L33.7222 26.9531C33.9537 26.6719 34.2315 26.6016 34.5556 26.7422C34.9259 26.8828 35.1111 27.1406 35.1111 27.5156V38.625C35.1111 39.5625 34.787 40.3594 34.1389 41.0156C33.4907 41.6719 32.7037 42 31.7778 42H7.33333C6.40741 42 5.62037 41.6719 4.97222 41.0156C4.32407 40.3594 4 39.5625 4 38.625V13.875C4 12.9375 4.32407 12.1406 4.97222 11.4844C5.62037 10.8281 6.40741 10.5 7.33333 10.5H27.1944C27.5648 10.5 27.8194 10.6875 27.9583 11.0625C28.0972 11.3906 28.0278 11.6719 27.75 11.9062L24.9722 14.7188C24.8333 14.9062 24.6481 15 24.4167 15H8.44444V37.5H30.6667V30.3281Z" fill="black"/>
</svg>
