<svg width="48" height="48" viewBox="0 0 48 48" fill="none" xmlns="http://www.w3.org/2000/svg">
<path d="M28.4176 39.7257C28.368 40.3239 30.9611 38.0247 32.1241 36.2156C33.0013 34.8467 33.5856 33.3284 33.8439 31.7468C34.3423 28.7641 33.6374 25.7133 31.8686 23.1985C31.8686 23.1985 28.6845 18.9568 27.7922 18.5784C28.0964 19.1589 28.3675 19.7544 28.6044 20.3623C28.9967 21.2709 29.2781 22.2188 29.4434 23.1877C29.615 24.2868 29.7637 25.2238 29.3671 26.323C29.1459 26.9285 28.7074 28.1249 28.2231 28.1249C28.1286 28.1131 28.0411 28.0711 27.9752 28.006C27.4325 27.5223 27.0587 26.8937 26.9037 26.2041C26.5986 24.6725 25.8779 20.7335 25.6872 19.8073C25.428 18.4039 24.9526 17.0441 24.2763 15.771C23.0896 13.614 21.358 11.7671 19.2351 10.394C18.5029 9.90392 16.8213 8.88763 16.7259 9.01016C16.7259 9.03539 16.7488 9.09305 16.7679 9.12188C16.7869 9.15071 18.0415 10.8229 18.9872 12.2608C19.3528 12.8511 19.6178 13.492 19.7728 14.1601C20.3791 16.2503 19.8834 18.0954 19.5402 19.3208C19.3419 20.0199 19.1932 20.3298 16.2455 26.2798C15.8984 26.9753 15.8832 27.0005 15.8412 27.105C14.96 29.1164 14.7654 31.3376 15.2845 33.4586C15.5505 34.4978 15.9949 35.4888 16.6001 36.3921C16.6001 36.3921 17.95 38.4319 21.1761 39.996C21.2025 40.0013 21.2298 40.0013 21.2562 39.996C21.2792 39.9966 21.302 39.9924 21.3231 39.9836C21.3442 39.9749 21.363 39.9619 21.3782 39.9455C21.4163 39.8951 21.3782 39.8194 21.3782 39.7798C21.3208 39.5884 21.2361 39.4053 21.1265 39.2356C20.8803 38.8782 20.6587 38.5062 20.463 38.122C20.2037 37.7039 20.1427 37.1742 20.0321 36.1291C19.9046 35.2867 19.8637 34.4346 19.9101 33.5848C19.9863 32.8135 20.2304 32.1432 20.7147 30.8602C21.5155 28.7304 21.9311 28.1718 22.3887 26.5573C22.3887 26.5573 22.5069 25.8149 22.77 24.8671C22.8402 24.552 22.9529 24.2467 23.1056 23.9589C23.1217 24.2743 23.1063 24.5904 23.0599 24.9031C23.0294 25.7068 23.2353 26.2293 23.6547 27.4006C23.9903 28.334 24.2954 29.2746 24.6271 30.208C25.1534 31.6999 25.4203 32.4495 25.4546 32.6982C25.6491 34.1686 25.283 35.4732 25.5995 35.5561C25.6682 35.5777 25.7406 35.5236 25.7826 35.4948C26.6673 34.8641 26.7016 35.1632 27.7655 34.356C28.3753 33.9586 28.9015 33.4576 29.3175 32.8784C29.5158 32.5685 29.6988 32.1829 29.798 32.2117C29.8971 32.2405 29.8247 32.5396 29.798 32.7595C29.6645 33.7722 29.8399 33.8406 29.7522 35.0839C29.7295 35.6155 29.6619 36.1446 29.5501 36.666C29.3137 37.7147 28.4328 39.5203 28.4176 39.7257Z" fill="#0D0D0D"/>
</svg>
