<svg width="48" height="48" viewBox="0 0 48 48" fill="none" xmlns="http://www.w3.org/2000/svg">
<path d="M10 13.2973C10 12.5808 10.5698 12 11.2727 12H36.7273C37.4302 12 38 12.5808 38 13.2973V15.2432C38 15.9597 37.4302 16.5405 36.7273 16.5405H11.2727C10.5698 16.5405 10 15.9597 10 15.2432V13.2973Z" fill="#0D0D0D"/>
<path d="M10 23.027C10 22.3105 10.5698 21.7297 11.2727 21.7297H29.0909C29.7938 21.7297 30.3636 22.3105 30.3636 23.027V24.973C30.3636 25.6894 29.7938 26.2703 29.0909 26.2703H11.2727C10.5698 26.2703 10 25.6894 10 24.973V23.027Z" fill="#0D0D0D"/>
<path d="M10 32.7568C10 32.0403 10.5698 31.4595 11.2727 31.4595H36.7273C37.4302 31.4595 38 32.0403 38 32.7568V34.7027C38 35.4192 37.4302 36 36.7273 36H11.2727C10.5698 36 10 35.4192 10 34.7027V32.7568Z" fill="#0D0D0D"/>
</svg>
