<svg width="48" height="48" viewBox="0 0 48 48" fill="none" xmlns="http://www.w3.org/2000/svg">
<path d="M34.9314 20.4899H36.0801L35.4953 42H34.872L34.9314 20.4899Z" fill="#0D0D0D"/>
<path d="M30.3724 20.8935L27.0511 15.0505C27.0511 15.0505 25.4661 12.6044 23.4537 13.1486C21.4413 13.6929 20.8032 16.4355 20.8032 16.4355C20.8032 16.4355 19.7406 19.8937 19.5536 21.9392C19.3666 23.9847 18.3812 31.9895 18.1942 32.017C18.0072 32.0445 13.7183 38.2025 13.5491 38.5296C13.3799 38.8568 12.9555 39.4133 13.1573 40.1807C13.1988 40.4222 13.3163 40.643 13.4917 40.8088C13.6672 40.9746 13.8908 41.0762 14.1279 41.098C14.4086 41.163 14.7 41.1604 14.9796 41.0904C15.2591 41.0204 15.5192 40.8849 15.7396 40.6944C16.4044 40.1074 21.379 34.0319 21.5333 33.3165C21.6877 32.601 22.0646 30.3659 22.0735 29.9042C22.0824 29.4425 22.5573 29.8583 22.7057 29.9929C22.8541 30.1274 26.502 32.5582 26.5969 32.8058C26.6919 33.0535 28.9714 40.4498 29.2059 40.8198C29.4404 41.1897 29.7431 41.8777 30.8621 41.8655C30.8621 41.8655 32.1206 41.9939 32.4857 40.8289C32.8507 39.664 32.4857 39.2023 32.4293 38.9944C32.3729 38.7865 30.1349 31.5125 29.9509 31.1547C29.7669 30.797 29.8737 30.476 29.0605 29.9134C28.2472 29.3508 25.4987 27.5285 25.4186 27.4153C25.3385 27.3022 25.2553 27.2288 25.3503 26.9169C25.4453 26.6051 26.5613 19.4962 26.6533 19.4136C26.7453 19.3311 26.9145 19.5176 26.9976 19.6949C27.0807 19.8723 28.5381 22.6852 28.8913 22.9237C29.5359 23.2348 30.2146 23.4647 30.9126 23.6086C31.5062 23.737 35.4389 24.7338 35.899 24.6696C36.3591 24.6054 36.9794 24.6207 36.9942 23.8013C37.0091 22.9818 37.018 22.7617 36.7182 22.3795C36.4184 21.9973 35.3885 21.7894 35.1896 21.7894C34.9387 21.8275 34.6837 21.8275 34.4327 21.7894C34.0142 21.7007 31.0699 20.9577 30.3724 20.8935Z" fill="#0D0D0D"/>
<path d="M26.2764 12.8001C28.0992 12.8001 29.5769 11.2778 29.5769 9.40003C29.5769 7.52225 28.0992 6 26.2764 6C24.4535 6 22.9758 7.52225 22.9758 9.40003C22.9758 11.2778 24.4535 12.8001 26.2764 12.8001Z" fill="#0D0D0D"/>
<path d="M16.5054 25.8498C16.8021 25.8892 17.1022 25.8097 17.3436 25.6276C17.585 25.4455 17.7493 25.1747 17.8024 24.8714C18.2269 22.4253 19.3458 16.6159 19.8534 15.3929C20.4975 13.8396 20.6281 13.4085 20.5568 13.2526C20.4856 13.0967 20.3431 12.5616 17.9864 12.7022C15.6298 12.8429 14.1576 15.613 13.4749 19.3402C12.7922 23.0674 12.8575 24.0887 13.5936 24.7094C14.2407 25.2353 14.6384 25.6144 16.5054 25.8498Z" fill="#0D0D0D"/>
</svg>
