<svg width="48" height="48" viewBox="0 0 48 48" fill="none" xmlns="http://www.w3.org/2000/svg">
<path d="M6 23.1818C6 21.3743 7.46525 19.9091 9.27273 19.9091H38.7273C40.5347 19.9091 42 21.3743 42 23.1818V24.8182C42 26.6257 40.5347 28.0909 38.7273 28.0909H9.27273C7.46525 28.0909 6 26.6257 6 24.8182V23.1818Z" fill="#0D0D0D"/>
<path d="M24.8182 6C26.6257 6 28.0909 7.46525 28.0909 9.27273L28.0909 38.7273C28.0909 40.5347 26.6257 42 24.8182 42H23.1818C21.3743 42 19.9091 40.5347 19.9091 38.7273L19.9091 9.27273C19.9091 7.46525 21.3743 6 23.1818 6L24.8182 6Z" fill="#0D0D0D"/>
</svg>
